<svg width="20" height="20" viewBox="0 0 20 20" fill="none" xmlns="http://www.w3.org/2000/svg">
<mask id="mask0_145_457" style="mask-type:alpha" maskUnits="userSpaceOnUse" x="0" y="0" width="20" height="20">
<rect x="2.38498e-07" width="20" height="20" fill="#D9D9D9"/>
</mask>
<g mask="url(#mask0_145_457)">
<path d="M4.99998 12.4358C4.78206 12.4358 4.59935 12.3621 4.45185 12.2148C4.30449 12.0673 4.23081 11.8846 4.23081 11.6666C4.23081 11.4487 4.30449 11.266 4.45185 11.1185C4.59935 10.9712 4.78206 10.8975 4.99998 10.8975C5.2179 10.8975 5.4006 10.9712 5.5481 11.1185C5.69547 11.266 5.76915 11.4487 5.76915 11.6666C5.76915 11.8846 5.69547 12.0673 5.5481 12.2148C5.4006 12.3621 5.2179 12.4358 4.99998 12.4358ZM4.99998 15.7691C4.78206 15.7691 4.59935 15.6955 4.45185 15.5481C4.30449 15.4006 4.23081 15.2179 4.23081 15C4.23081 14.7821 4.30449 14.5994 4.45185 14.4519C4.59935 14.3045 4.78206 14.2308 4.99998 14.2308C5.2179 14.2308 5.4006 14.3045 5.5481 14.4519C5.69547 14.5994 5.76915 14.7821 5.76915 15C5.76915 15.2179 5.69547 15.4006 5.5481 15.5481C5.4006 15.6955 5.2179 15.7691 4.99998 15.7691ZM4.99998 9.10248C4.78206 9.10248 4.59935 9.0288 4.45185 8.88144C4.30449 8.73394 4.23081 8.55123 4.23081 8.33331C4.23081 8.1154 4.30449 7.93269 4.45185 7.78519C4.59935 7.63783 4.78206 7.56415 4.99998 7.56415C5.2179 7.56415 5.4006 7.63783 5.5481 7.78519C5.69547 7.93269 5.76915 8.1154 5.76915 8.33331C5.76915 8.55123 5.69547 8.73394 5.5481 8.88144C5.4006 9.0288 5.2179 9.10248 4.99998 9.10248ZM2.49998 8.74998C2.38887 8.74998 2.29165 8.70831 2.20831 8.62498C2.12498 8.54165 2.08331 8.44442 2.08331 8.33331C2.08331 8.2222 2.12498 8.12498 2.20831 8.04165C2.29165 7.95831 2.38887 7.91665 2.49998 7.91665C2.61109 7.91665 2.70831 7.95831 2.79165 8.04165C2.87498 8.12498 2.91665 8.2222 2.91665 8.33331C2.91665 8.44442 2.87498 8.54165 2.79165 8.62498C2.70831 8.70831 2.61109 8.74998 2.49998 8.74998ZM4.99998 5.76915C4.78206 5.76915 4.59935 5.69547 4.45185 5.5481C4.30449 5.4006 4.23081 5.2179 4.23081 4.99998C4.23081 4.78206 4.30449 4.59935 4.45185 4.45185C4.59935 4.30449 4.78206 4.23081 4.99998 4.23081C5.2179 4.23081 5.4006 4.30449 5.5481 4.45185C5.69547 4.59935 5.76915 4.78206 5.76915 4.99998C5.76915 5.2179 5.69547 5.4006 5.5481 5.5481C5.4006 5.69547 5.2179 5.76915 4.99998 5.76915ZM2.49998 12.0833C2.38887 12.0833 2.29165 12.0416 2.20831 11.9583C2.12498 11.875 2.08331 11.7778 2.08331 11.6666C2.08331 11.5555 2.12498 11.4583 2.20831 11.375C2.29165 11.2916 2.38887 11.25 2.49998 11.25C2.61109 11.25 2.70831 11.2916 2.79165 11.375C2.87498 11.4583 2.91665 11.5555 2.91665 11.6666C2.91665 11.7778 2.87498 11.875 2.79165 11.9583C2.70831 12.0416 2.61109 12.0833 2.49998 12.0833ZM8.33331 17.9166C8.2222 17.9166 8.12498 17.875 8.04165 17.7916C7.95831 17.7083 7.91665 17.6111 7.91665 17.5C7.91665 17.3889 7.95831 17.2916 8.04165 17.2083C8.12498 17.125 8.2222 17.0833 8.33331 17.0833C8.44442 17.0833 8.54165 17.125 8.62498 17.2083C8.70831 17.2916 8.74998 17.3889 8.74998 17.5C8.74998 17.6111 8.70831 17.7083 8.62498 17.7916C8.54165 17.875 8.44442 17.9166 8.33331 17.9166ZM8.33331 2.91665C8.2222 2.91665 8.12498 2.87498 8.04165 2.79165C7.95831 2.70831 7.91665 2.61109 7.91665 2.49998C7.91665 2.38887 7.95831 2.29165 8.04165 2.20831C8.12498 2.12498 8.2222 2.08331 8.33331 2.08331C8.44442 2.08331 8.54165 2.12498 8.62498 2.20831C8.70831 2.29165 8.74998 2.38887 8.74998 2.49998C8.74998 2.61109 8.70831 2.70831 8.62498 2.79165C8.54165 2.87498 8.44442 2.91665 8.33331 2.91665ZM8.33331 5.76915C8.1154 5.76915 7.93269 5.69547 7.78519 5.5481C7.63783 5.4006 7.56415 5.2179 7.56415 4.99998C7.56415 4.78206 7.63783 4.59935 7.78519 4.45185C7.93269 4.30449 8.1154 4.23081 8.33331 4.23081C8.55123 4.23081 8.73394 4.30449 8.88144 4.45185C9.0288 4.59935 9.10248 4.78206 9.10248 4.99998C9.10248 5.2179 9.0288 5.4006 8.88144 5.5481C8.73394 5.69547 8.55123 5.76915 8.33331 5.76915ZM8.33519 12.7885C8.02408 12.7885 7.75901 12.6796 7.53998 12.4619C7.32095 12.2441 7.21144 11.9796 7.21144 11.6685C7.21144 11.3574 7.32033 11.0923 7.5381 10.8733C7.75588 10.6543 8.02033 10.5448 8.33144 10.5448C8.64255 10.5448 8.90762 10.6537 9.12665 10.8714C9.34567 11.0892 9.45519 11.3537 9.45519 11.6648C9.45519 11.9759 9.3463 12.241 9.12852 12.46C8.91074 12.679 8.6463 12.7885 8.33519 12.7885ZM8.33519 9.45519C8.02408 9.45519 7.75901 9.3463 7.53998 9.12852C7.32095 8.91074 7.21144 8.6463 7.21144 8.33519C7.21144 8.02408 7.32033 7.75901 7.5381 7.53998C7.75588 7.32095 8.02033 7.21144 8.33144 7.21144C8.64255 7.21144 8.90762 7.32033 9.12665 7.53811C9.34567 7.75588 9.45519 8.02033 9.45519 8.33144C9.45519 8.64255 9.3463 8.90762 9.12852 9.12665C8.91074 9.34567 8.6463 9.45519 8.33519 9.45519ZM8.33331 15.7691C8.1154 15.7691 7.93269 15.6955 7.78519 15.5481C7.63783 15.4006 7.56415 15.2179 7.56415 15C7.56415 14.7821 7.63783 14.5994 7.78519 14.4519C7.93269 14.3045 8.1154 14.2308 8.33331 14.2308C8.55123 14.2308 8.73394 14.3045 8.88144 14.4519C9.0288 14.5994 9.10248 14.7821 9.10248 15C9.10248 15.2179 9.0288 15.4006 8.88144 15.5481C8.73394 15.6955 8.55123 15.7691 8.33331 15.7691ZM10.2083 17.2835L10.2083 2.71644C11.188 2.73769 12.1087 2.94359 12.9704 3.33415C13.8321 3.72456 14.5831 4.24942 15.2235 4.90873C15.8641 5.5679 16.3689 6.33442 16.7379 7.20831C17.1071 8.0822 17.2916 9.01276 17.2916 9.99998C17.2916 10.9872 17.1071 11.9178 16.7379 12.7916C16.3689 13.6655 15.8641 14.4321 15.2235 15.0912C14.5831 15.7505 13.8321 16.2754 12.9704 16.6658C12.1087 17.0564 11.188 17.2623 10.2083 17.2835Z" fill="#F4F4F4"/>
</g>
</svg>
