<svg width="26" height="26" viewBox="0 0 26 26" fill="none" xmlns="http://www.w3.org/2000/svg">
<mask id="mask0_145_384" style="mask-type:alpha" maskUnits="userSpaceOnUse" x="0" y="0" width="26" height="26">
<rect width="26" height="26" fill="#D9D9D9"/>
</mask>
<g mask="url(#mask0_145_384)">
<path d="M1.94809 20.9167V18.5082C1.94809 17.9499 2.09217 17.4517 2.38034 17.0135C2.66851 16.5753 3.05336 16.2344 3.5349 15.9908C4.56443 15.4872 5.59965 15.0989 6.64055 14.8259C7.68163 14.5531 8.82572 14.4167 10.0728 14.4167C11.3201 14.4167 12.4642 14.5531 13.5051 14.8259C14.5462 15.0989 15.5815 15.4872 16.611 15.9908C17.0926 16.2344 17.4774 16.5753 17.7656 17.0135C18.0537 17.4517 18.1978 17.9499 18.1978 18.5082V20.9167H1.94809ZM20.3645 20.9167V18.3749C20.3645 17.6639 20.1904 16.9862 19.8423 16.3418C19.494 15.6976 19 15.1448 18.3603 14.6835C19.0867 14.7918 19.7763 14.9595 20.4292 15.1864C21.0819 15.4136 21.7048 15.682 22.298 15.9916C22.8577 16.2902 23.2899 16.6422 23.5947 17.0476C23.8995 17.4528 24.0519 17.8952 24.0519 18.3749V20.9167H20.3645ZM10.0728 12.6666C9.03011 12.6666 8.13753 12.2954 7.39509 11.5529C6.65265 10.8103 6.28142 9.91763 6.28142 8.87492C6.28142 7.83221 6.65265 6.93963 7.39509 6.19719C8.13753 5.45456 9.03011 5.08325 10.0728 5.08325C11.1155 5.08325 12.0082 5.45456 12.7508 6.19719C13.4933 6.93963 13.8645 7.83221 13.8645 8.87492C13.8645 9.91763 13.4933 10.8103 12.7508 11.5529C12.0082 12.2954 11.1155 12.6666 10.0728 12.6666ZM19.4269 8.87492C19.4269 9.91763 19.0556 10.8103 18.3132 11.5529C17.5708 12.2954 16.6782 12.6666 15.6355 12.6666C15.5132 12.6666 15.3577 12.6527 15.1688 12.6249C14.9798 12.5971 14.8242 12.5666 14.7022 12.5333C15.1294 12.0197 15.4577 11.4498 15.6872 10.8238C15.9165 10.1979 16.0312 9.54785 16.0312 8.87384C16.0312 8.19964 15.9142 7.55208 15.6802 6.93115C15.4462 6.3104 15.1202 5.73894 14.7022 5.21677C14.8576 5.16116 15.0132 5.12505 15.1688 5.10844C15.3243 5.09165 15.4798 5.08325 15.6355 5.08325C16.6782 5.08325 17.5708 5.45456 18.3132 6.19719C19.0556 6.93963 19.4269 7.83221 19.4269 8.87492Z" fill="#F4F4F4"/>
</g>
</svg>
