<svg width="15" height="15" viewBox="0 0 15 15" fill="none" xmlns="http://www.w3.org/2000/svg">
<mask id="mask0_145_451" style="mask-type:alpha" maskUnits="userSpaceOnUse" x="0" y="0" width="15" height="15">
<rect y="15" width="15" height="15" transform="rotate(-90 0 15)" fill="#D9D9D9"/>
</mask>
<g mask="url(#mask0_145_451)">
<path d="M10.9375 9.96391C10.9375 10.2796 10.8281 10.5469 10.6094 10.7656C10.3906 10.9844 10.1234 11.0938 9.80766 11.0938L2.69234 11.0938C2.37661 11.0938 2.10938 10.9844 1.89063 10.7656C1.67188 10.5469 1.5625 10.2796 1.5625 9.96391L1.5625 2.84859C1.5625 2.53286 1.67188 2.26563 1.89063 2.04688C2.10938 1.82813 2.37661 1.71875 2.69234 1.71875L9.80766 1.71875C10.1234 1.71875 10.3906 1.82813 10.6094 2.04688C10.8281 2.26563 10.9375 2.53286 10.9375 2.84859V9.96391ZM13.125 12.1514C13.125 12.4671 13.0156 12.7344 12.7969 12.9531C12.5781 13.1719 12.3109 13.2813 11.9952 13.2813L3.94234 13.2813V12.3438L11.9952 12.3438C12.0433 12.3438 12.0873 12.3237 12.1273 12.2836C12.1674 12.2436 12.1875 12.1995 12.1875 12.1514V4.09859L13.125 4.09859V12.1514Z" fill="#F4F4F4"/>
</g>
</svg>
