<svg width="26" height="26" viewBox="0 0 26 26" fill="none" xmlns="http://www.w3.org/2000/svg">
<mask id="mask0_145_390" style="mask-type:alpha" maskUnits="userSpaceOnUse" x="0" y="0" width="26" height="26">
<rect width="26" height="26" fill="#D9D9D9"/>
</mask>
<g mask="url(#mask0_145_390)">
<path d="M11.375 24.4998V22.2083H5.75008C5.20282 22.2083 4.7396 22.0187 4.36044 21.6396C3.98127 21.2604 3.79169 20.7972 3.79169 20.2499V5.75004C3.79169 5.20277 3.98127 4.73956 4.36044 4.36039C4.7396 3.98123 5.20282 3.79164 5.75008 3.79164H11.375V1.50012H13V24.4998H11.375ZM5.41669 19.5H11.375V12.354L5.41669 19.5ZM15.1667 22.2083V13L20.5834 19.5V5.75004C20.5834 5.66662 20.5486 5.59025 20.4791 5.52091C20.4097 5.4514 20.3334 5.41664 20.25 5.41664H15.1667V3.79164H20.25C20.7972 3.79164 21.2604 3.98123 21.6396 4.36039C22.0188 4.73956 22.2084 5.20277 22.2084 5.75004V20.2499C22.2084 20.7972 22.0188 21.2604 21.6396 21.6396C21.2604 22.0187 20.7972 22.2083 20.25 22.2083H15.1667Z" fill="#F4F4F4"/>
</g>
</svg>
