<svg width="18" height="18" viewBox="0 0 18 18" fill="none" xmlns="http://www.w3.org/2000/svg">
<mask id="mask0_145_445" style="mask-type:alpha" maskUnits="userSpaceOnUse" x="0" y="0" width="18" height="18">
<rect x="2.14648e-07" width="18" height="18" fill="#D9D9D9"/>
</mask>
<g mask="url(#mask0_145_445)">
<path d="M3.98081 15.375C3.60194 15.375 3.28125 15.2438 3.01875 14.9813C2.75625 14.7188 2.625 14.3981 2.625 14.0192L2.625 3.98081C2.625 3.60194 2.75625 3.28125 3.01875 3.01875C3.28125 2.75625 3.60194 2.625 3.98081 2.625H14.0192C14.3981 2.625 14.7188 2.75625 14.9813 3.01875C15.2438 3.28125 15.375 3.60194 15.375 3.98081L15.375 14.0192C15.375 14.3981 15.2438 14.7188 14.9813 14.9813C14.7188 15.2438 14.3981 15.375 14.0192 15.375H3.98081ZM5.0625 12.5625H12.9951L10.5289 9.27413L8.42306 12.0144L6.92306 10.0961L5.0625 12.5625ZM6.375 7.3125C6.63463 7.3125 6.85575 7.22113 7.03838 7.03837C7.22113 6.85575 7.3125 6.63462 7.3125 6.375C7.3125 6.11538 7.22113 5.89425 7.03838 5.71163C6.85575 5.52887 6.63463 5.4375 6.375 5.4375C6.11538 5.4375 5.89425 5.52887 5.71163 5.71163C5.52888 5.89425 5.4375 6.11538 5.4375 6.375C5.4375 6.63462 5.52888 6.85575 5.71163 7.03837C5.89425 7.22113 6.11538 7.3125 6.375 7.3125Z" fill="#F4F4F4"/>
</g>
</svg>
